<?xml version="1.0" encoding="utf-8"?>
<!-- Generator: Adobe Illustrator 15.0.0, SVG Export Plug-In . SVG Version: 6.00 Build 0)  -->
<!DOCTYPE svg PUBLIC "-//W3C//DTD SVG 1.1//EN" "http://www.w3.org/Graphics/SVG/1.1/DTD/svg11.dtd">
<svg version="1.1" id="Capa_1" xmlns="http://www.w3.org/2000/svg" xmlns:xlink="http://www.w3.org/1999/xlink" x="0px" y="0px"
	 width="200px" height="63.667px" viewBox="0 0 200 63.667" enable-background="new 0 0 200 63.667" xml:space="preserve">
<g>
	<g>
		<rect x="41.779" y="27.557" fill="#B1B1B0" width="1.806" height="24.509"/>
		<rect x="41.779" y="21.643" fill="#B1B1B0" width="1.806" height="4.015"/>
		<rect x="165.343" y="27.557" fill="#B1B1B0" width="1.808" height="24.509"/>
		<rect x="165.343" y="21.643" fill="#B1B1B0" width="1.808" height="4.015"/>
		<rect x="110.467" y="20.744" fill="#B1B1B0" width="1.808" height="30.423"/>
		<path fill="#B1B1B0" d="M113.555,43.284h-1.339v-1.75c6.424,0.208,17.922-1.734,17.922-9.507c0-7.779-10.271-9.705-18.09-9.653
			l-0.002-1.65h1.509c0,0,18.375-0.456,18.375,11.304C131.93,43.782,113.555,43.284,113.555,43.284z"/>
		<path fill="#B1B1B0" d="M52.396,25.037v0.55h-0.823c0.098-2.642-0.815-7.374-4.476-7.374c-3.657,0-4.564,4.227-4.54,7.444h-0.779
			v-0.621c0,0-0.212-7.561,5.318-7.561C52.633,17.476,52.396,25.037,52.396,25.037z"/>
		<path fill="#B1B1B0" d="M73.977,50.562v-0.554H74.8c-0.098,2.645,0.815,7.379,4.474,7.379c3.661,0,4.566-4.228,4.542-7.444h0.777
			v0.62c0,0,0.215,7.562-5.318,7.562C73.743,58.124,73.977,50.562,73.977,50.562z"/>
		<g>
			<rect x="51.086" y="19.596" fill="#B1B1B0" width="1.808" height="30.42"/>
			<rect x="73.41" y="33.53" fill="#B1B1B0" width="1.808" height="17.474"/>
			<path fill="#B1B1B0" d="M75.216,37.801v1.252h-1.872c0.223-6.003-1.854-16.757-10.169-16.757
				c-8.315,0-10.377,9.604-10.319,16.916h-1.768v-1.41c0,0-0.486-17.183,12.087-17.183C75.749,20.618,75.216,37.801,75.216,37.801z"
				/>
		</g>
		<rect x="83.465" y="34.972" fill="#B1B1B0" width="1.806" height="15.493"/>
		<rect x="105.791" y="34.972" fill="#B1B1B0" width="1.808" height="15.493"/>
		<rect x="85.271" y="40.879" fill="#B1B1B0" width="21.422" height="1.77"/>
		<rect x="106.398" y="41.9" fill="#B1B1B0" width="4.971" height="0.802"/>
		<rect x="156.631" y="22.066" fill="#B1B1B0" width="17.843" height="0.8"/>
		<rect x="110.917" y="50.275" fill="#B1B1B0" width="26.019" height="0.802"/>
		<path fill="#B1B1B0" d="M107.593,35.892v1.253h-1.869c0.225-6.007-1.853-16.761-10.167-16.761
			c-8.317,0-10.377,9.606-10.321,16.917h-1.768v-1.41c0,0-0.486-17.184,12.089-17.184C108.128,18.708,107.593,35.892,107.593,35.892
			z"/>
		<path fill="#B1B1B0" d="M181.178,22.766h-6.704v-1.387c0-0.38,0.291-0.684,0.649-0.684h5.805c0.357,0,15.56-1.099,15.56,11.79
			c0,4.239-1.765,6.851-4.149,8.452c-2.158,1.448-4.825,2.063-7.142,2.3c-2.904,0.296-5.266,0-5.399,0h-1.539
			c-0.808,0.367-1.427,1.14-1.427,2.664c0,4.264,4.823,3.235,5.196,3.235h14.46v1.396c0,0.373-0.304,0.679-0.677,0.679h-13.783
			c-0.373,0-7.005,0.711-7.005-5.311c0-1.115,0.229-1.987,0.604-2.669c0.857-1.566,2.487-2.122,3.889-2.294
			c1.277-0.159,2.369,0,2.512,0h3.182c4.116-0.459,9.09-2.259,9.09-8.346C194.299,22.343,181.562,22.766,181.178,22.766z"/>
		<path fill="#B1B1B0" d="M152.099,22.766l6.154,0.101v-1.389c0-0.377-0.293-0.684-0.65-0.684l-5.253-0.099
			c-0.357,0-15.561-1.099-15.561,11.79c0,4.239,1.766,6.851,4.151,8.452c2.157,1.448,4.821,2.063,7.14,2.3
			c2.908,0.296,5.266,0,5.4,0h1.539c0.808,0.367,1.427,1.14,1.427,2.664c0,4.264-4.824,3.235-5.196,3.235h-14.461v1.396
			c0,0.373,0.304,0.679,0.677,0.679h13.784c0.372,0,7.003,0.711,7.003-5.311c0-1.115-0.228-1.987-0.603-2.669
			c-0.857-1.566-2.487-2.122-3.889-2.294c-1.278-0.159-2.366,0-2.512,0h-3.181c-4.117-0.459-9.092-2.259-9.092-8.346
			C138.978,22.343,151.715,22.766,152.099,22.766z"/>
	</g>
	<path fill="#B1B1B0" d="M27.805,8.258h9.459V6.122c0-0.579-0.446-1.048-1-1.048h-8.075c-0.552,0-23.927-1.687-23.927,18.129
		c0,6.516,2.715,10.534,6.382,12.993c3.319,2.225,7.417,3.172,10.98,3.538c4.467,0.457,8.096,0,8.302,0h2.366
		c1.245,0.562,2.193,1.75,2.193,4.097c0,6.558-7.415,4.973-7.99,4.973H4.262v2.146c0,0.578,0.465,1.045,1.041,1.045h21.192
		c0.575,0,10.77,1.093,10.77-8.164c0-1.718-0.352-3.057-0.925-4.104c-1.322-2.41-3.824-3.265-5.98-3.531
		c-1.964-0.243-3.641,0-3.864,0h-4.889c-6.33-0.705-13.978-3.473-13.978-12.831C7.628,7.607,27.214,8.258,27.805,8.258z"/>
	<g>
		<g>
			<path fill="#6F6F6E" d="M41.904,23.613c0,0.172-0.031,0.314-0.069,0.314h-19.59c-0.037,0-0.067-0.142-0.067-0.314l0,0
				c0-0.175,0.031-0.315,0.067-0.315h19.59C41.873,23.298,41.904,23.438,41.904,23.613L41.904,23.613z"/>
			<path fill="#6F6F6E" d="M24.069,7.443c0.185,0,0.335,0.02,0.335,0.047v13.273c0,0.027-0.15,0.048-0.335,0.048l0,0
				c-0.187,0-0.334-0.021-0.334-0.048V7.491C23.735,7.463,23.883,7.443,24.069,7.443L24.069,7.443z"/>
			<path fill="#6F6F6E" d="M25.658,25.902c0.171-0.063,0.321-0.092,0.331-0.069l5.018,12.419c0.01,0.025-0.123,0.094-0.298,0.155
				l0,0c-0.173,0.061-0.321,0.092-0.331,0.066l-5.017-12.417C25.353,26.032,25.485,25.963,25.658,25.902L25.658,25.902z"/>
			<path fill="#6F6F6E" d="M22.495,24.264c0.159,0.086,0.278,0.174,0.265,0.198l-7.042,11.526c-0.013,0.024-0.156-0.028-0.317-0.117
				l0,0c-0.162-0.084-0.279-0.173-0.266-0.194l7.042-11.527C22.192,24.127,22.333,24.179,22.495,24.264L22.495,24.264z"/>
			<path fill="#6F6F6E" d="M20.344,23.638c0.054,0.166,0.077,0.308,0.05,0.314L6.818,27.833c-0.027,0.009-0.092-0.12-0.146-0.286
				l0,0c-0.054-0.167-0.077-0.306-0.05-0.313l13.575-3.885C20.225,23.345,20.29,23.473,20.344,23.638L20.344,23.638z"/>
			<path fill="#6F6F6E" d="M22.138,20.855c-0.134,0.12-0.258,0.201-0.279,0.185l-9.831-9.577c-0.019-0.018,0.073-0.131,0.208-0.252
				l0,0c0.133-0.12,0.258-0.201,0.277-0.184l9.831,9.576C22.363,20.624,22.271,20.735,22.138,20.855L22.138,20.855z"/>
		</g>
		<g>
			<ellipse fill="#6F6F6E" cx="23.854" cy="22.866" rx="4.251" ry="3.975"/>
			<ellipse fill="#FFED00" cx="23.854" cy="22.866" rx="2.901" ry="2.712"/>
		</g>
		<g>
			<ellipse fill="#FFFFFF" cx="42.786" cy="23.791" rx="4.251" ry="3.975"/>
			<ellipse fill="#6F6F6E" cx="42.787" cy="23.791" rx="3.205" ry="2.995"/>
		</g>
		<g>
			<ellipse fill="#FFFFFF" cx="23.728" cy="6.523" rx="3.109" ry="2.906"/>
			<ellipse fill="#6F6F6E" cx="23.727" cy="6.523" rx="2.343" ry="2.19"/>
		</g>
		<g>
			<ellipse fill="#FFFFFF" cx="12.083" cy="11.4" rx="3.108" ry="2.908"/>
			<ellipse fill="#6F6F6E" cx="12.083" cy="11.4" rx="2.343" ry="2.192"/>
		</g>
		<g>
			<ellipse fill="#FFFFFF" cx="6.621" cy="28.643" rx="3.109" ry="2.907"/>
			<ellipse fill="#6F6F6E" cx="6.622" cy="28.643" rx="2.343" ry="2.193"/>
		</g>
		<g>
			<ellipse fill="#FFFFFF" cx="14.786" cy="36.318" rx="3.109" ry="2.908"/>
			<ellipse fill="#6F6F6E" cx="14.785" cy="36.318" rx="2.343" ry="2.19"/>
		</g>
		<g>
			<ellipse fill="#FFFFFF" cx="31.006" cy="38.253" rx="3.109" ry="2.906"/>
			<ellipse fill="#6F6F6E" cx="31.006" cy="38.253" rx="2.344" ry="2.191"/>
		</g>
	</g>
	<g>
		<g>
			<ellipse fill="#6F6F6E" cx="166.557" cy="22.467" rx="4.252" ry="3.973"/>
			<ellipse fill="#FFED00" cx="166.557" cy="22.467" rx="2.9" ry="2.71"/>
		</g>
		<g>
			<ellipse fill="#FFFFFF" cx="155.981" cy="22.066" rx="3.234" ry="3.023"/>
			<ellipse fill="#6F6F6E" cx="155.98" cy="22.066" rx="2.438" ry="2.281"/>
		</g>
		<g>
			<ellipse fill="#FFFFFF" cx="136.936" cy="49.942" rx="3.083" ry="2.88"/>
			<path fill="#6F6F6E" d="M139.259,49.942c0,1.198-1.04,2.168-2.323,2.168c-1.282,0-2.322-0.97-2.322-2.168
				c0-1.2,1.04-2.173,2.322-2.173C138.219,47.769,139.259,48.742,139.259,49.942z"/>
		</g>
		<g>
			<ellipse fill="#FFFFFF" cx="177.708" cy="22.066" rx="3.234" ry="3.023"/>
			<path fill="#6F6F6E" d="M180.146,22.066c0,1.259-1.094,2.281-2.437,2.281c-1.349,0-2.44-1.022-2.44-2.281s1.092-2.279,2.44-2.279
				C179.053,19.787,180.146,20.807,180.146,22.066z"/>
		</g>
	</g>
</g>
</svg>
