<?xml version="1.0" encoding="utf-8"?>
<!-- Generator: Adobe Illustrator 15.0.0, SVG Export Plug-In . SVG Version: 6.00 Build 0)  -->
<!DOCTYPE svg PUBLIC "-//W3C//DTD SVG 1.1//EN" "http://www.w3.org/Graphics/SVG/1.1/DTD/svg11.dtd">
<svg version="1.1" id="Capa_1" xmlns="http://www.w3.org/2000/svg" xmlns:xlink="http://www.w3.org/1999/xlink" x="0px" y="0px"
	 width="83.98px" height="100px" viewBox="0 0 83.98 100" enable-background="new 0 0 83.98 100" xml:space="preserve">
<g>
	<path fill="#B1B1B0" d="M46.762,11.383h17.216V7.227c0-1.128-0.815-2.043-1.82-2.043H47.463c-1.004,0-43.541-3.282-43.541,35.28
		c0,12.683,4.944,20.502,11.615,25.286c6.042,4.331,13.496,6.175,19.979,6.885c8.13,0.889,14.732,0,15.107,0h4.305
		c2.265,1.096,3.992,3.409,3.992,7.971c0,12.76-13.494,9.68-14.539,9.68H3.922v4.176c0,1.125,0.849,2.034,1.896,2.034h38.563
		c1.045,0,19.597,2.126,19.597-15.89c0-3.339-0.64-5.946-1.684-7.985c-2.403-4.692-6.959-6.353-10.882-6.87
		c-3.575-0.473-6.626,0-7.031,0h-8.896c-11.521-1.37-25.435-6.758-25.435-24.969C10.049,10.116,45.688,11.383,46.762,11.383z"/>
	<g>
		<g>
			<path fill="#6F6F6E" d="M72.418,41.263c0,0.336-0.056,0.611-0.125,0.611H36.648c-0.069,0-0.127-0.275-0.127-0.611l0,0
				c0-0.336,0.058-0.61,0.127-0.61h35.645C72.362,40.653,72.418,40.927,72.418,41.263L72.418,41.263z"/>
			<path fill="#6F6F6E" d="M39.964,9.798c0.338,0,0.611,0.04,0.611,0.092v25.832c0,0.049-0.273,0.09-0.611,0.09l0,0
				c-0.336,0-0.609-0.041-0.609-0.09V9.89C39.354,9.837,39.628,9.798,39.964,9.798L39.964,9.798z"/>
			<path fill="#6F6F6E" d="M42.856,45.718c0.315-0.119,0.586-0.178,0.605-0.13l9.128,24.167c0.019,0.048-0.224,0.181-0.541,0.3l0,0
				c-0.313,0.12-0.583,0.179-0.602,0.132l-9.129-24.168C42.302,45.971,42.543,45.838,42.856,45.718L42.856,45.718z"/>
			<path fill="#6F6F6E" d="M37.1,42.535c0.293,0.165,0.511,0.337,0.483,0.38L24.768,65.347c-0.024,0.044-0.282-0.058-0.575-0.225
				l0,0c-0.292-0.167-0.508-0.34-0.483-0.382l12.814-22.43C36.547,42.266,36.807,42.366,37.1,42.535L37.1,42.535z"/>
			<path fill="#6F6F6E" d="M33.188,41.314c0.098,0.321,0.139,0.597,0.09,0.611L8.573,49.48c-0.046,0.013-0.165-0.236-0.264-0.559
				l0,0c-0.097-0.323-0.14-0.594-0.09-0.61l24.703-7.557C32.97,40.742,33.087,40.989,33.188,41.314L33.188,41.314z"/>
			<path fill="#6F6F6E" d="M36.452,35.897c-0.244,0.235-0.471,0.393-0.507,0.358L18.054,17.622c-0.033-0.038,0.136-0.256,0.38-0.491
				l0,0c0.241-0.232,0.469-0.393,0.502-0.354l17.891,18.632C36.863,35.445,36.696,35.665,36.452,35.897L36.452,35.897z"/>
		</g>
		<g>
			<circle fill="#6F6F6E" cx="39.575" cy="39.812" r="7.734"/>
			<circle fill="#FFED00" cx="39.575" cy="39.812" r="5.276"/>
		</g>
		<g>
			<path fill="#FFFFFF" d="M81.761,41.612c0,4.271-3.461,7.733-7.733,7.733s-7.737-3.463-7.737-7.733
				c0-4.274,3.465-7.737,7.737-7.737S81.761,37.338,81.761,41.612z"/>
			<circle fill="#6F6F6E" cx="74.025" cy="41.612" r="5.829"/>
		</g>
		<g>
			<circle fill="#FFFFFF" cx="39.343" cy="8.008" r="5.658"/>
			<circle fill="#6F6F6E" cx="39.344" cy="8.008" r="4.264"/>
		</g>
		<g>
			<circle fill="#FFFFFF" cx="18.153" cy="17.5" r="5.658"/>
			<circle fill="#6F6F6E" cx="18.154" cy="17.5" r="4.263"/>
		</g>
		<g>
			<circle fill="#FFFFFF" cx="8.217" cy="51.055" r="5.658"/>
			<path fill="#6F6F6E" d="M12.481,51.055c0,2.354-1.907,4.261-4.263,4.261c-2.354,0-4.265-1.907-4.265-4.261
				c0-2.355,1.911-4.266,4.265-4.266C10.574,46.789,12.481,48.699,12.481,51.055z"/>
		</g>
		<g>
			<circle fill="#FFFFFF" cx="23.072" cy="65.988" r="5.658"/>
			<circle fill="#6F6F6E" cx="23.073" cy="65.988" r="4.264"/>
		</g>
		<g>
			<path fill="#FFFFFF" d="M58.246,69.755c0,3.123-2.529,5.657-5.655,5.657c-3.125,0-5.66-2.534-5.66-5.657
				c0-3.127,2.535-5.66,5.66-5.66C55.717,64.095,58.246,66.628,58.246,69.755z"/>
			<path fill="#6F6F6E" d="M56.854,69.755c0,2.354-1.907,4.262-4.263,4.262s-4.266-1.907-4.266-4.262
				c0-2.356,1.91-4.265,4.266-4.265S56.854,67.398,56.854,69.755z"/>
		</g>
	</g>
</g>
</svg>
