<?xml version="1.0" encoding="utf-8"?>
<!-- Generator: Adobe Illustrator 15.0.0, SVG Export Plug-In . SVG Version: 6.00 Build 0)  -->
<!DOCTYPE svg PUBLIC "-//W3C//DTD SVG 1.1//EN" "http://www.w3.org/Graphics/SVG/1.1/DTD/svg11.dtd">
<svg version="1.1" id="Capa_1" xmlns="http://www.w3.org/2000/svg" xmlns:xlink="http://www.w3.org/1999/xlink" x="0px" y="0px"
	 width="161.5px" height="186.5px" viewBox="0.49 24.516 161.5 186.5" enable-background="new 0.49 24.516 161.5 186.5"
	 xml:space="preserve">
<g>
	<polygon fill="#FFFFFF" points="55.587,160.516 30.587,117.215 55.587,73.914 105.587,73.914 130.587,117.215 105.587,160.516 	"/>
	<polygon fill="#FFFFFF" points="25.49,121.969 0.49,121.969 0.49,208.572 25.49,208.572 50.49,165.271 	"/>
	<polygon fill="#FFFFFF" points="161.99,121.969 136.99,121.969 111.99,165.271 136.99,208.572 161.99,208.572 	"/>
	<polygon fill="#FFFFFF" points="25.49,27.47 0.49,27.47 0.49,114.072 25.49,114.072 50.49,70.771 	"/>
	<polygon fill="#FFFFFF" points="161.99,27.47 136.99,27.47 111.99,70.771 136.99,114.072 161.99,114.072 	"/>
	<polygon fill="#FFFFFF" points="30.587,24.516 30.587,24.517 55.587,67.816 105.587,67.816 130.587,24.517 130.586,24.516 	"/>
	<polygon fill="#FFFFFF" points="105.587,167.715 55.587,167.715 30.587,211.016 130.587,211.016 	"/>
</g>
</svg>
